<mxfile host="app.diagrams.net" modified="2023-03-08T01:42:28.228Z" agent="5.0 (Windows NT 10.0; Win64; x64) AppleWebKit/537.36 (KHTML, like Gecko) Chrome/110.0.0.0 Safari/537.36" etag="x4gFc_u9HV0lehFq69Ay" version="21.0.2" type="github">
  <diagram name="ページ1" id="reITNUFGv8LrnvSCWIPV">
    <mxGraphModel dx="794" dy="438" grid="1" gridSize="10" guides="1" tooltips="1" connect="1" arrows="1" fold="1" page="1" pageScale="1" pageWidth="827" pageHeight="1169" math="0" shadow="0">
      <root>
        <mxCell id="0" />
        <mxCell id="1" parent="0" />
        <mxCell id="1vIn2K1pfK5k4aqUDixq-8" value="" style="rounded=0;whiteSpace=wrap;html=1;" parent="1" vertex="1">
          <mxGeometry x="80" y="80" width="680" height="400" as="geometry" />
        </mxCell>
        <mxCell id="1vIn2K1pfK5k4aqUDixq-9" value="" style="rounded=0;whiteSpace=wrap;html=1;" parent="1" vertex="1">
          <mxGeometry x="250" y="140" width="500" height="330" as="geometry" />
        </mxCell>
        <mxCell id="1vIn2K1pfK5k4aqUDixq-10" value="" style="sketch=0;aspect=fixed;html=1;points=[];align=center;image;fontSize=12;image=img/lib/mscae/Docker.svg;" parent="1" vertex="1">
          <mxGeometry x="260" y="150" width="50" height="41" as="geometry" />
        </mxCell>
        <mxCell id="1vIn2K1pfK5k4aqUDixq-14" value="" style="rounded=0;whiteSpace=wrap;html=1;" parent="1" vertex="1">
          <mxGeometry x="620" y="230" width="120" height="230" as="geometry" />
        </mxCell>
        <mxCell id="1vIn2K1pfK5k4aqUDixq-15" value="" style="rounded=0;whiteSpace=wrap;html=1;" parent="1" vertex="1">
          <mxGeometry x="440" y="230" width="120" height="230" as="geometry" />
        </mxCell>
        <mxCell id="1vIn2K1pfK5k4aqUDixq-16" value="" style="rounded=0;whiteSpace=wrap;html=1;labelPosition=left;verticalLabelPosition=top;align=right;verticalAlign=bottom;container=0;" parent="1" vertex="1">
          <mxGeometry x="260" y="230" width="120" height="230" as="geometry">
            <mxRectangle x="260" y="230" width="50" height="40" as="alternateBounds" />
          </mxGeometry>
        </mxCell>
        <mxCell id="1vIn2K1pfK5k4aqUDixq-17" value="" style="shape=image;html=1;verticalAlign=top;verticalLabelPosition=bottom;labelBackgroundColor=#ffffff;imageAspect=0;aspect=fixed;image=https://cdn1.iconfinder.com/data/icons/unicons-line-vol-5/24/react-128.png" parent="1" vertex="1">
          <mxGeometry x="285" y="310" width="70" height="70" as="geometry" />
        </mxCell>
        <mxCell id="1vIn2K1pfK5k4aqUDixq-19" value="" style="outlineConnect=0;dashed=0;verticalLabelPosition=bottom;verticalAlign=top;align=center;html=1;shape=mxgraph.aws3.mysql_db_instance_2;fillColor=#2E73B8;gradientColor=none;" parent="1" vertex="1">
          <mxGeometry x="650" y="305.5" width="60" height="63" as="geometry" />
        </mxCell>
        <mxCell id="1vIn2K1pfK5k4aqUDixq-20" value="" style="aspect=fixed;html=1;points=[];align=center;image;fontSize=12;image=img/lib/azure2/general/Browser.svg;" parent="1" vertex="1">
          <mxGeometry x="100" y="254" width="82.5" height="66" as="geometry" />
        </mxCell>
        <mxCell id="1vIn2K1pfK5k4aqUDixq-26" value="local PC" style="text;html=1;strokeColor=none;fillColor=none;align=center;verticalAlign=middle;whiteSpace=wrap;rounded=0;" parent="1" vertex="1">
          <mxGeometry x="80" y="80" width="60" height="30" as="geometry" />
        </mxCell>
        <mxCell id="1vIn2K1pfK5k4aqUDixq-27" value="frontend container" style="text;html=1;strokeColor=none;fillColor=none;align=center;verticalAlign=middle;whiteSpace=wrap;rounded=0;" parent="1" vertex="1">
          <mxGeometry x="260" y="230" width="120" height="30" as="geometry" />
        </mxCell>
        <mxCell id="1vIn2K1pfK5k4aqUDixq-28" value="api container" style="text;html=1;strokeColor=none;fillColor=none;align=center;verticalAlign=middle;whiteSpace=wrap;rounded=0;" parent="1" vertex="1">
          <mxGeometry x="440" y="230" width="120" height="30" as="geometry" />
        </mxCell>
        <mxCell id="1vIn2K1pfK5k4aqUDixq-29" value="db container" style="text;html=1;strokeColor=none;fillColor=none;align=center;verticalAlign=middle;whiteSpace=wrap;rounded=0;" parent="1" vertex="1">
          <mxGeometry x="620" y="230" width="120" height="30" as="geometry" />
        </mxCell>
        <mxCell id="1vIn2K1pfK5k4aqUDixq-30" value="browser" style="text;html=1;strokeColor=none;fillColor=none;align=center;verticalAlign=middle;whiteSpace=wrap;rounded=0;" parent="1" vertex="1">
          <mxGeometry x="100" y="224" width="80" height="30" as="geometry" />
        </mxCell>
        <mxCell id="1vIn2K1pfK5k4aqUDixq-31" value="port 3000" style="text;html=1;strokeColor=default;fillColor=none;align=center;verticalAlign=middle;whiteSpace=wrap;rounded=0;" parent="1" vertex="1">
          <mxGeometry x="260" y="272" width="60" height="30" as="geometry" />
        </mxCell>
        <mxCell id="1vIn2K1pfK5k4aqUDixq-33" value="port 8080" style="text;html=1;strokeColor=default;fillColor=none;align=center;verticalAlign=middle;whiteSpace=wrap;rounded=0;" parent="1" vertex="1">
          <mxGeometry x="440" y="275.5" width="60" height="30" as="geometry" />
        </mxCell>
        <mxCell id="1vIn2K1pfK5k4aqUDixq-35" value="port 3306" style="text;html=1;strokeColor=default;fillColor=none;align=center;verticalAlign=middle;whiteSpace=wrap;rounded=0;" parent="1" vertex="1">
          <mxGeometry x="620" y="405" width="60" height="30" as="geometry" />
        </mxCell>
        <mxCell id="1vIn2K1pfK5k4aqUDixq-36" value="" style="endArrow=classic;startArrow=classic;html=1;rounded=0;entryX=0;entryY=0.5;entryDx=0;entryDy=0;" parent="1" target="1vIn2K1pfK5k4aqUDixq-31" edge="1">
          <mxGeometry width="50" height="50" relative="1" as="geometry">
            <mxPoint x="180" y="287" as="sourcePoint" />
            <mxPoint x="430" y="240" as="targetPoint" />
          </mxGeometry>
        </mxCell>
        <mxCell id="1vIn2K1pfK5k4aqUDixq-37" value="" style="endArrow=classic;startArrow=classic;html=1;rounded=0;entryX=0;entryY=0.5;entryDx=0;entryDy=0;" parent="1" target="1vIn2K1pfK5k4aqUDixq-33" edge="1">
          <mxGeometry width="50" height="50" relative="1" as="geometry">
            <mxPoint x="380" y="290" as="sourcePoint" />
            <mxPoint x="430" y="240" as="targetPoint" />
          </mxGeometry>
        </mxCell>
        <mxCell id="1vIn2K1pfK5k4aqUDixq-38" value="" style="endArrow=classic;startArrow=classic;html=1;rounded=0;entryX=0;entryY=0.5;entryDx=0;entryDy=0;exitX=1;exitY=0.5;exitDx=0;exitDy=0;" parent="1" source="1vIn2K1pfK5k4aqUDixq-40" target="1vIn2K1pfK5k4aqUDixq-35" edge="1">
          <mxGeometry width="50" height="50" relative="1" as="geometry">
            <mxPoint x="380" y="290" as="sourcePoint" />
            <mxPoint x="430" y="240" as="targetPoint" />
          </mxGeometry>
        </mxCell>
        <mxCell id="1vIn2K1pfK5k4aqUDixq-39" value="" style="shape=image;verticalLabelPosition=bottom;labelBackgroundColor=default;verticalAlign=top;aspect=fixed;imageAspect=0;image=data:image/png,iVBORw0KGgoAAAANSUhEUgAAAzQAAAM0CAMAAABarJdFAAAC+lBMVEUAAAAAAP8Aff8Afv8AgP8Af/8Af/8Af/8Af/8AgP8Af/8AgP8AgP8Acf8Afv8Af/8Af/8AgP8AgP8Af/8Af/8AgP8Aff8AgP8AgP8Aff8Aff8AfP8AgP8Ad/8AgP8Af/8Af/8Af/8Af/8AfP8Aff8Af/8AgP8AgP8AgP8AgP8AgP8AgP8Af/8Af/8Afv8Afv8Af/8AgP8Ae/8AgP8Af/8Af/8Afv8Aff8Af/8Afv8Af/8AgP8AgP8Af/8Afv8AgP8Adv8Af/8Ae/8AgP8Af/8AgP8Aff8Af/8AgP8Afv8Afv8AgP8AgP8AgP8Abf8AgP8AgP8AfP8AgP8Af/8AgP8Af/8AgP8AfP8Afv8Af/8AgP8Aef8AgP8AgP8Af/8AgP8Af/8AgP8Af/8AdP8AgP8AgP8Af/8AgP8Afv8Afv8AgP8Af/8AgP8Af/8Aff8AgP8Afv8AgP8Aev8Ae/8Afv8Afv8AgP8AgP8Afv8AgP8Af/8Afv8AgP8AgP8AgP8AgP8Afv8AgP8AgP8AgP8Af/8Af/8AgP8AgP8Af/8Afv8AZv8AgP8Af/8AgP8AgP8AgP8AgP8Afv8Af/8Af/8Aef8AgP8AgP8AgP8Af/8AgP8Af/8AgP8AgP8AgP8Af/8AgP8AgP8AgP8Af/8AgP8AgP8AgP8AgP8AVf8AgP8Af/8Af/8Aff8AgP8Af/8AgP8AgP8Af/8Af/8Aff8Af/8AgP8Af/8AgP8AgP8AgP8AgP8AgP8AgP8Af/8AgP8AgP8AgP8AgP8Aff8Af/8Afv8AgP8Af/8AgP8AgP8Afv8AgP8Af/8AgP8Af/8AgP8AgP8AgP8AgP8AeP8Af/8AfP8AgP8Afv8AgP8Af/8AgP8Af/8Aev8AgP8Af/8AgP8Afv8AgP8AgP8AgP8Afv8AgP8AgP8Af/8AgP8Af/8AgP8AgP8Afv8Afv8AgP8AgP8AgP8Afv8Afv8AgP8Afv8AgP8Afv8AgP8AgP8Afv8Af/8Afv8AgP8AgP8AgP8AgP/k+OTEAAAA/nRSTlMAATV1qMnZ3c22hUwICU+Huc7Yx6VyMQIYKzMjEA983//xnScto/Tadgwier2rW3Hv/B2q/etpObv+jRrE9X8KDfcfrvNsL+XiWWHm3igHuA4p7sU8y+ghSdvSFaAe1yCvzKkLgvabrE1VXONAwTewR5wXG31zooB38pFD1vDcUFfgKi7Dl55Ks28FeLFSfoS+S/uZExwGRNWGtfoUEu0EZurTiCb47ANe6Yk/QtEkivmLPc+mrVpgjMo6xqFWTo44O49RkL8ymFOStxaT1Cy0lBGVJZZB0Oea4Rkwn2pFRuSkXT42p8KDaLJneci6vGtjdF/AbW5we4FlNFRIWOgUOWsAABvgSURBVHja7ME1AsIAEACww93dW9z+/z62zkxokgAAAAAAAAAAAAAAAAAAAAAAAAAAAAAAAAAAAAAAAAAAAAAAAAAAAAAAAAAAAAAAAAAAAAAAAAAAAAAAAAAAAAAAAAAAAAAAAAAAAAAAAAAAAAAAAAAAAAAAAAAAAAAAAAAAAAAAAAAAAAAAAAAAAAAAAAAAAAAAAAAAAAAAAAAAAACel8sXiqVypVqrN5rBO7XanW6v0h8MR+P4fJPpbL5Yxh9arTdJJt3u4l3YH45J5nS+xCe73u7pg7378I+qTN8/fg+rFJfYdbCwXMhP+IGNkEEzQgxBVliBCJEOwYJoItWWZluwZWJPaBoggQgJ1tgLWLD3Lqy9997Lt29H0+aZnGfO/Zy53v8Cr8/rnDu8zlz4qx777d9dUkr4gP74lfS9B4gfqF9GBL8y8MCQaHVQZhT/1vvgQZI6BgxGE1mHZEuy0ZDtctDEvt1EpaGH4jeG/TEsKeKw4WjOiD+FhJIpfPhINGfUaNEn9w9ZaOqIMZISxuahBUd2EEqecePRggkTRZtJk9GsKd0kBUztgRZFpg2S5KD8raJo0fQxospRR6Mlx/SV4DsWrRm2T1ch+2YcNxOtOV7/m9k/nSCBV4A29CgUsix04iy0Ljpb/5vZP+0vARfaAW2as6uQTXN3QpvmiBJHzUMbJmRLsM1HHCInnSxkyyl7RxGHuaJB11Nnok2nSbAVIS69i7sK2ZBWUoq4lIkCp5+BOHQKSZCFz0SczjpbyHOhPy9AnEaoezNr2VwJsoWI377nCHlr93MRv0H638z+6RAJsj/BQPp5U4W80+38CAxcIL664CzErVyCLAYj/XepEG9Q7oWlMHK4+GjiRTAwWYLsEBjq+HvxAl3cCYYOEN90vWQmTORJkF0KY0cslPaiwy6DsRLxy+VnwUyE0fxGZdVUaQ9aVJYOd6JZXARjEmTbIBF5JUskUVQROxNwJpolsWFoAaMxs+PlkhhaugxwJ5ql05EICbIrkKjM3cQc9boSiSpR9mbGaMxVVy0XM7SirBLuRLMk1htNMZrt0A4rYzUSP6qpXYV2KNH7ZsZoDEyfJPGipavRLiU63swYTR3aKXOsUDyuykA7lah+M2M0BqrLuktbaM+6NXAoGvM3M0ZjZm2sXlpD4YZ1gDvR9MtAKxjN1fDCDtcIteza6wB3okkrzoE5RmOuvJ9Q867PAByKpqATWsdoboBHGsvGSFM0o3gNHIqmXzkSx2iMjazladP0mJkAz5ToeDNjNDfCQ8fcJLSla26Gh0r0v5kxGnPRWwYI/dPE/QCHopl6K7zDaAxkFWfLX1HfbXLgUjQ3TYCHGI2RWbeFhMK3jwRcimbbmYgTo7kD3rvzLkl1HdYDTkUzbg0MMBrvRTcMklQ24JYo3Ipm8VrEjdEcDCuyitMkVWWXDAMci+YimGI0Fiy4W1JSaP9ZgGvR3AMDjOZeWLP1ffydWUeiuVNJNIwGkb26SWoZtCEKB6PZCBOM5n54hQMdS2KlgIvRlMEco7Gn0wOSKu5eALgZzY6MxsiDsO2hwyQVPDwHcDSaMRFl0TAapD8yVYKu20kROBtNBxhhNGVIgmHFuQH/ndmegLvRzIc5RmNfxwIJrgfOAlyO5lFGY+YxtA+3B8c+DrgdTaHSaBgNIkVPSPCsMB/NYDSuexKJ40BHRaw/jDAaRpPi24NLnwIYDaOxLfNpCYpez8A+RqPQs0gIBzqeq2sEo2E0BrQOdOgfzWA07nsePph+gbjt9CkAo2E0yZW5UNz1QgbsYzR6vQgLFAx0aBvNYDSMRsFAh7rRDEbDaOw7Y7645qVNsI/RKHceLAjqQEd+ESxgNIwmsAMdM4pzADAaRvMILAjiQEe4YTNsYjSMxkDnm0S/uTvBBKMJsiooUD5RdFtcFIV9jIbRGJhZN0T0yi6eCQ0YjRJ/gQ7Da8OiU6jwZTTFaBiNAuM3ikYdjkRTjIbR6BDNGCranKLimGE0uhwPRbLq+jo1msFoGI0CsxpCokZBD6jCaJQ4CcpsfZD+0QxGw2h0iRa9Iv57pSoCbRiNEntBAXUDHUuMfmeW0TAaBUb4e9oUdIIOjIbRGHjoVfHLrnOgE6NR4nwoFSk6WfywqCwdajAaRqN/oKMidia0YTSMxkCfeyS5zp4MLzCaiATZa1BAyUDH6C7wBqNZyWh8VPn8IkmO5eelg9F4pI8E2TRo178kV+yrqB0IzzCaoxmNz6ZPEtsu3xEeYjR/kCDbABdkPu3UaAajeZXR+K/6wefElhWPVYLReKqjBFoRFDAa6NA/msFoXmc0Sqx+Q7z35jJ4jdG81VUCbW84JHOhC6MZjOYBYTR6NN7YXbyz58GN8B6jeU0C7m3YoX+gI9wwARYwmsG5wieNMptmixdeug42MJrBK4RPGn1u7Sft1e9QWMFotkoTRqPRmu2GSHsMsbQAyGj6vyMpYGc4aWA7TpuQpdEMRhMtOllSwS1wVOd3JTHv7QQrGM2mjSKMRrfyiYpGMxhN/1i9pIj3oZ/5QIfRaAaj4ZuZ0mgUDHSEChfACkZz80ZJIVvBbePH2R/NYDR8M9MfjY2BjlPMf2eW0fDNTH809gY60kpK0QpGwzczA8ciAN5qCNkfzWA0fDMLUjTAnQdJyx7+AFYwmmjRE5KCMhAM0Yz8Fkcz0mEFo7n5LtGP0ZgMdBiMZjAavpkZ2A/6mQ90GI1mMBq+maVuNMBOF8gWQpfvBDsYTef7RBhNQHT88L40+au0gy7tAzsYTd7r9cJogqRyx/WZ6ztWIk6M5lGYiew1VVLaCUh1jGYp/2bGaBiNmYdhIO/Aekl1tyLVMZrsSv7NjNEwGjNTEKdj7hMROhQpj9Fsx//NZDSMxsxhiEPkpOXyN3Q0Uh6jkYfQph3ukn9hNMRorkEbVn4Uln+ieSBGI3vzb2aMhtGYeW4EWnbMXNkSXQQQo5Hd8tCCPP7NjNEwmmaNa76ayPHLhRgNo2nW6D5oavx7Qk18DGI0f5N9fwS/tuqTsBCjYTStGLuhGv+2+dO+QoyG0bRhxeHH9okAmPnZk2/WS/OoHMRofqXmuaP6SivoGRCjsYnREKOhK2ETMRpGQ4yGuoAYDTEaRkOMhhiNIo/DJmI0jIYYDR0Bm4jRMBpiNLQ9bCJGw2iI0dDnIEZDjIbREKMhRqNIJmwiRsNoiNHQF7CJGA2jIUZD+4IYjTJ80mz++Lgv9/9qlxe3rkYQRTq+f8epxQ8e+jKj4ZPGG1nPbgzLPzx3+HoEzZEfTZV/GPr1U4yG0bRbetnJ8itv3IkgOXe2bCl08TJGkwougz07Nt0CDn0zHEHRo1B+K/eKSkYTfA/Bmsv2lGZkF+cgCLKK06QZb/RkNIwmYUcskeZNPAHOixadIs17r5TRMJoE3TxEWjT7Zrjts7nSogsqGU3AfQs7cnpJK+pr18Fdb70TklYcwmgYjZV/4O53NMJNOZfOkFZVbGI0wTYHVmxOk7a8kAEXlU+UtkxiNIwmAadJHN5cBtfscI3EYTyjCbQPYENkkMSjpnYVXLI2znXw1xkNozH2kMRp0bOVcEXjjd0lPienM5ogOxc2fChx63Ul3JC5UOL2FKNhNKYeEAP39IF+y94UA0WMJsgGw4YOYqIidiZ0yytZIiaOYzSMxtQLYmZRWTr0qqyaKmYOYDSMxlS+mNp1DrT6fDcxVctoguxIJdGIFHSCRpMLxdwnjCYZGI0sifWENr2LcyUBHzGaIFuvJxqRQVURaBIp6iYJOTBJ0RCjEdl9MPT47D5pitHQTrqikVDhAugwqyEkiXo9edEQoxHJLhmm82tmA18GORr6TF00IouLovBXNGOotMcfkxsNMRqR93aCn8ZvFHErGmI0EmrYDL8Mrw1LO30X5Ghoa53RiMzw6aeeGsvGSLt970M0xGhErs9A8pX3k9YxGrpTbzQiL12H5Dpjvngi5lM0xGgk3LBOz9fMBn4IcjQ0XnU0Is/VNSI5qsu6iwF+GqAVoxG5qhzJkLmbxIXR0DHqoxFZ+hRs2/Fy8dIu/kZDjEYqagcq+JrZwGk+R0OMRmSFxe+hI0VTxWNfBzka6uxGNCJjH4cd+54j4ko0xGgUfA89uVAs+F2Qo6Ed9Edj8Xvo3sVdxYb/z2h0YDQir1Slezpn1k3sKAlyNHSzU9GIPPwBvLL1fSLBj4YYjUhBD5++ZjZwIaPRhNFImgffQ2fV9RWLPg1yNLTJvWhETimK+vA1s4F9GI0yjEakw3ok7phxkjhGQ9e5GY2ECkcgMSNrw2Lbj4xGAUZj+D20ha+ZDfwhyNHQFGejERlQlNSvmQ2cymh0YjQiszeZf83MaFIao5H6jwYiXqtq6yVJLkmpaLq9dHbhBR2yxQ2MRmTPe6sRj+qD9xTPMZqaSecPx9+kX3fcQkkNq52Mxnwf+pmrJIkOSZFoam6fjC0900FSwVPuRyNyelvpd7xckqo4NaK59jr8RrSqrziB0UhFLA8ty/u+QjzHaF64CM1YNlScwGhElr9YieZVPr9Iku2n4EfT/cZGNGvkQgm6ZQGJRmR0FzTnsnMk+Y4LejThhgloyVuLxRGMRuTss/Bbk88W7zGa2TejFevrxRWMRnJjw7Glt2K54osPAx3NxBPQuq8l2M4IUjQiue98nIO/y7noxFzxyaUBjmbIFTlow7Dl4j9GY6Bi13diJbF3dq0Q/2wT2GjCh49E27aRQJvuYDT6XRHUaN5bj3isqmE0f8VoGE3++1HEZ6kE2Y6MxoLt9Edjd6u+ToKsI6OxoC540YQKFyB+mSn/pGE0jGbuTjCxQIKsD6Ox4IaARTOoKgIjpSn9esZoGE3aqb1hKMonDaMxdGOQoikYBXMSZJMZjQV3BCeahz8AGA2jse/goESzvJkFOkZzFqNhNBYGgRgNozF0rzvRmE/PMZpOjMaC+wMQzdgjED9Gw2gYzaKWjxlGM4rRWPCg49FUxM4EGA2jSaYyt6NZugxgNIwmuR5zOZrRV6JVjKYHo2E0W1pRVglGw2iS70lXo6mpXYW2MJoFjMaCZx2NZulqgNEwGl8872Q0V2UgfoyG0TCaPR+sRlwYzcuMxoIX3YvmglmIH6NhNIwmfC/AaBiNn85zLJr6YxE/RjOC0VjwiGPRPAlGw2gYjYmfwWhMzGI0FlQ5Fc3QnozGyFuMxoLjnYrmbTAaPmkYjYle6YzGzHBGY8FJLkVzBxgNX88YjYnQy4yGTxoFzncomtFgNIZGpng0jOZERsNoGI2ZQxiNqc2MxoJpDkVTxmj4pGE0ZvZiNKYmMBoLNjgUzWuMhtFoUORQNNMYDaPRYG9GE2TrUjwaRrOB0TAaDd52KJoiRmNqFaOxYGeHotmb0TAa/vWM0TAa9+w+3qFo3mY0pgYyGq+9UpUOh6LZmdGYWsto7O9Uqo7mFkbDaMzZ36nUHM37jIbRmLO/U6k5mq0YjamVjEbLTiWj0Y/RKNipVBDNsYzGVB6jsb9TqTqaDEbDaMzZ36nUHM1+jMZUf0Zjf6dSdTQnMBpGk3Q1tQMBRsNoGI3RTqXL0dzKaEydyWjs71SqjuZQRsNokmnPujVwPZqjGY2pnowmYeGGdYDz0cxjNIwmaa69DhYwGv1KGU1irs8AAhHNRYyG0SRF3+I1CEg0HzMaU8MYjblwwwQgKNGUMxpGY9/sm4HgRPMMo2E0tg0oisIiRqNfb0ZjZEZxDhCoaK5kNIzGplDhy0DAounCaExlMZr4vbceCFw0jzMaRmPNKUVRBDCaIxiNqZmMJj7ZJcNgH6NhNAE6ZhYAwYxme0ZjKofRxOGXwUBQo/mc0TAa7w2qiiC40WQyGkbjtbSSUiDA0XzBaEytYTStKxgFBRgNo3HGwx8AAY9mX0ZjqpHRtGx5WToCH81ljIbReKYi1hMIfjQPMRpT1YymBQVnAakQzbeMhtF4Y+zj0IPRMBqOZmiKZg6jMVXJaOyPZqiO5gNGw2j0j2boiuZcRsP/p2mn3T6HVl8zGh3WMRqD0Qx//Sw2DGY0ps5gNP9W8X0eFHuU0ehwLKMxGM3wVy+xYT2jMfU7RmOwAOirnmFGo0MvRmMwmuGrrcSKzxiNsU0Ao6k5cCDUe4DRaHE7ozEYzfDRgiVixdaMxlhNn1SP5vp5cMHPwmjUeCma0tHMKF4DF+xUL3aMZzQJeDCFown/vA5OKO0ljEaR+nkpG801N8MN6feILccwmkTM6JKa0UzcD45ovE0YjTI1T0ZTL5q+V+TAEWuvFXs6M5oEzX85xaIJ3z4Srriom1i0A6PR8fve6qPpsB6umFwoVm1iNIk7pSpiPxqOZhjqXZwrjEaxDoPtR8PRDBORom5i23WMRsegRD5HM7zw2X1i3xQd0fC0yedoRvvNaghJEqxmNDpOm3yOZrRXVnGaJMVTjEbHaZPP0Yz2iWYMFWE0Tp02PbyPhqMZBsZvlKRZxmi8Om1KgxbNw3PgiuG1Yed/WkVM8bTJ52hGwhrLhkgyTdcRDcdZ8zmakajyiZJcOzIaHadNPkczErPDuyKpGQ1Pm3yOZiRibaxekq6jgmh42qiKZoU7x0x1WXfxQR8d0fC0yVdzzPSHKzIXii8mMxrvhfafBVOLRYWCjnDFU2+IpHQ0PG36igK9roQr8kqWiF/Ogg1Ci9+OwkB1SHy36NlKOKLyyRUiKR4NT5tN4rea2lVwxRf/T/w0SkU0PG32Ep8NOAOu6FMgwmh42uBR8VkxHDGsOFd8tkBDNDxthmUzmrik/+UJ+StGw9PmQYkHo/n2VVHgZQXR8LTJOYXRxKHHf8g/MBqeNhcKo2lTVnFX0WEWo/H/tNmphtG0JbphkAijSS2/nIuW9OgmjKYN4+8SPd5iNEk7bUagWS/3ktYxmln7h4TRpKTsQ7LQ1DGDpFWMZuZxM0SV4YzG1x8Rq6xbIoxGw9fMBjYzmqR6db8ts6l+7QVpFaPpfJMIo0l1i2Pbr8VfbX7mk+XSKkYz4auw6DOB0fig29jdey2SNjCaNVePkfgxGmI0mWNFp1WMRiVGs3qpaDWQ0SjEaFbGakStakajDqOpLntO9BoDRqMNo/niadFsLqNRhtH0KRTdvmQ0qjCa/iW5otxFjEYRRhMpOlm023MNo9GD0Tx0mOj3NRiNFoym08XigOwJjEYJRtO7uKu44AYwGhUYTeS1V8QJG9MZjQqM5s6DxA0TJ4DRKMBoRtwWEjfkdwSj8R+jySrOFkfsPhKMxn+MpvwocURNyRowGt8xmvEbxRWnTwEYjd8YzcBYvTji+gyA0fiN0VSXjRFHzCheA0bjO0ZTvoc4ItwwAWA0fmM00/9TXHHNzQCj8RujKf2yXhwxcT+A0fiO0Xw7VBzR94ocMBr/MZqiJeKGUOHLAKPxH6OZFhI3bBwPMBoFGM1lFeKE/PejYDQaMJozBzgy+TgMYDQqMJpacUDoxFkAo9GB0XSqcWnGntEowGg+EvVO2TsKRqMGo6leJMqllZQCjEYPRvO56Bb688sAo9GE0fwkqj38AcBodGE0D4hir5wfAaPRhtEcJGotifUEGI06jGahaPXoKIDRKMRozhGdxh4BMBqVGM01otGisnQwGqUYzTeiz5KvzwQYjVaM5klRZ+kygNHoxWimiDJPZ0IJIUbTvN1EkxVllWA0yjGaO0SPih/yAEajHaPp/YRosXQ1NBFiNC04T3QY+zjAaJzAaKLzRYHn6hrBaBzBaLDqevFbTe0qqCPEaFo0/WTx1xtPQSEhRtOyUWPFRy9kQCUhRtOK/oeLX7rf0QidhBhNq7YfK36o/2QVlIoIMZrWVVY9IUn30iaotVKI0bQlL1YhSbXHoVBsshCjaVufwqQuAOZAs3lCjCYenz8tyRH+ajN0O1WI0cQlUnSyJMHcnaDd7kKMJk5nfr1ELBt6LNTrI8Ro4vdyg9iUXTwT+n0nxGhMXPaq2BJqGA4HjEwTYjSGp003saLDkXBCoRCjMVV6YVfx3ICdo3DC20KMJgEjGkJeLwCWwg13zhBiNAn54BfxTuhPI+CI8cuFGE2CItMGuX/MGJs3Q4jRJC6rrq94YFBVBI7oWRsSYjTt8lZt2PXRDAPRjHwhRtNud46TdikYBVdsfZAQo/FCNOMoSdiuc+CKtxpCQozGIzPrhugfzbB/vhGjMTG8tl6MVcTOdOeYGSrEaDx2zE1iqOAsuGL8RiFGY0F5P7d+Z9bgMRoWYjRWNJaNkTitcOeYMT/YiNEYGBirj++Y6Q9XlE8UYjRW7XCNtGnpU3BF55skKOhHqHXrHtKq3baHKzYfHpbAoC+hV3VZd/2jGaYnmvvobmi27pN6aVbF9yvhilv7SaBQL+g2/QKNC4AGzpgvAUPh/lDuoquahH4lXLGutl4Ch6ZBu+rXfpXN6A2VcETjjd0lgGg+9IseeUCHriIiaXNP2ykKV1z0ggQShTbBCZUjp58xoRLuWP2GBBVtC/Le2tdrJLgoA+SxyqrlEmQ09WWQp7qMloCjhXkg73T8vQQf/TIBpH8dkVSZOB7khcrnF0mKoJp9ZqLdKPNpSSG0uCiKdqHJhZJi6L0jkTgaVpwrKed/27sDzqriMI7jzwAo3EISHKSsQmVyw1BYGFFGkZVrYMoEbAgU2QQVEmMhMgIKtIULAwFCJjEKkF5BIwIT8vzjdM+95/N5F1/4/Rib365o9PMuzfOPP5VsfQ6kDSW/VJGHtOHY4r4gTdpwPvu1i7TBaQbSptxtpxns8W2zwmlGOWmD0wykjdMMpI3TDKSN0wxGLG1YvhUgbWo6zUDaMG1nFmnjNANp05AHXZA2z+9GHkibVytiBmlT+GSYB9Kmez9A2hRdGOaBtFlbeRFpIG1WB3SagbSxMwtzf6SN0wyQNleXngVIm4IHwA8B0ibv1IOAmtLmQjWCjs8HNCdtnGbAwqbTDGhx2mxNBUgbpxlIG6cZtDJtnGbA2Pr0UJ9m9AOanzZOM+DscKbN5OL+gEFZOOg0A0Y8bd5tBEibvB2nGUgbpxlIG6cZtCVtPlUN13sTIG2cZiBtnGYgbZxmwPClTed1gLRxmoG0cZqBtGmE7pXIA2lz83qAtHGagbRxmgGNSJvu4YAhdGhQaXPgSYC0cZqBtKntNONG5IG0+XE0QNo4zUDa1OT00uWA1qaN0wzo15w2j6ciD6TN9nqAtHGaATWlzYTTDKRNke/9AGnjNANqShunGUibwtOM2WgLuPPWaQb857TZETNImxKTL8cDpI3TDKgpbXozkQfS5pIHQKSN0wwoTZuCmLkWeSBtOl8jD6RN/jQDpI3TDChOm+UjkQfS5t7PyANps5aIGZA2ydMM4MTD1WqPp+8/BvB3s496Z6rfJjonL0YCMLexe+7L7sx4AAAAAAAAAAAAAAAAAAAAAAAAAAAAAAAAAAAAAAAAAAAAAAAAAAAAAAAAAAAAAAAAAAAAAAAAAAAAAAAAAAAAAAAAAAAAAAAAAAAAAAAAAAAAAAAAAAAAAAAAAAAAAAAAAAAAAAAAAAAAAAAAAADU7hcAyU2KwAW0HwAAAABJRU5ErkJggg==;" parent="1" vertex="1">
          <mxGeometry x="286.5" y="380" width="67" height="67" as="geometry" />
        </mxCell>
        <mxCell id="1vIn2K1pfK5k4aqUDixq-40" value="" style="shape=image;verticalLabelPosition=bottom;labelBackgroundColor=default;verticalAlign=top;aspect=fixed;imageAspect=0;image=data:image/png,iVBORw0KGgoAAAANSUhEUgAAANEAAADxCAMAAABiSKLrAAABI1BMVEX///9SsOcuO2k8dsM1csJ8n9N1fJclM2UeLmI7d8YqbcCjp7lTs+k9eccsN2UvQnRCq+ZLc7FHZJrK1+xDdbsxSHw2XJg7cborMF8wcME6bK9Utu4pN2cQJV1OpeDw+P3h8PrL5fc5Zafc5vNOV3yn1PJzveu1uMYySniVzO+s1vLn8/t1vuu8zegXKmBetejT6fiFxe3r7PBGktRPgshymNFXh8q43PRFj9KyxeRGjL+VsNvb3eQGIFs8bJxkj82Vmq5kbItYo9VWntpFibs5YpGlvOA/d6pKmc2/ws48R3JtdJGYnbAjU4aawuE/WIM9caY/VoETZL2NqdhTqdVJh6pPm8E2TW89YX9koNlBfbSotcgyT4uDiKHMz9gAE1GKmblTRGb3AAAQHUlEQVR4nNWdeUMTSRPGM5loEpwMUUCDkxAEXUAkuIIXigd4ILrrurrv4Yr7fv9P8c491dXH9DXJpP7Gnvl119NTVV0dG43p2Hjn1pSeNCW70+/3f1mf9VvYs1tO3wmt/+t41m9ix9b3Y56Y6c6sX8aCjX/NeSIkb+7ldAfyxEzzLadUQIhpZ27ltP4LgydmujvrV9MyUkAIaX8O5XSXz5PIaXfWb6hmtzwx0LzJiSsgEsl5POsXlTSRgLCc7s/6ZWWsRECI6V7t5SQhIMS0M+tXFpqcgBBSneW0o84TM9VVTo9ZIY8kUx3zjPv72jwxU93yjN17RjxO7eSkKSDEVJ88w0BAiKkecjIUEGKafZ6xKx3ySCLNOm2nkm4LTLOUkzUBIaZZycmqgEikmchJPmfQYpp+2l6BgBDTvam6XkUCQkzTC4yqExBC8qYTGFUrIMS0v149UOUCQkxV7+TMsm/FTFXKad1AQCb/sqqd3ERA/Z1dg4yjosDIQED9e9Eb6ZRV8hHsy8lAQMX3X7n0BQaxHBgZTC+Zbd/t6w9kMc8wExDpLmMTOdkqwCqVfcvfYddETjYKsCa+DyqL43sFnEEU1e+bBka2BBRtlOBTaVKsNCrAGjk9+NRnHRpA20Zy0t7JTQQEvh+wQ6OIPE1qlpqB0S0Db4cCIjdKgGoiJ40CrMEUEo+j1xl8Kh8bfJ0U5WRZQOgPQORpElqpBEZ37ZybcNcZfKZMKpjScjLxb5hzitYZfCpNHicVGBkJCDygRCPwU2n0dVqnEQizJSCJiYfaNpGTuNHD0sHjWG6dgZwMgmFRnjENAaF/VsjJIOPnpe3WBKSyzvDbZZJUstL26QkI/eOK5GRLQDpyAAMYyQkGRiYCguutu85gkU3Sl3y1DT7bpCaX1jytUQLnt+fFKCZySjZPfQHhfXNv4YmjzuR57wfHD+A4JuWVHZMkiBLj3oLrnioiecHZ+aA5IohMvvP93xt7vTVPx1mAgHYBUat3qjJccPJ54DcxkbacgrPFrfA1Wo/UfYVMsFO4iChkOpQeLnBeRDzN5iQjKnZyjYpNND2TkGg1fIkDNaa+A7K2SMjJBpwQhcNJysl748c8OVG454KtU/GLkkxPJyGKfUUBaIfKrGPGjMhtycgpFlATECUfI1iSU5FT8KYZTU9GFPmK7NbLiS/Dr0FOlAwnHC/ykGZunQdFwAADI+nILDjbToYLiZ6uZi8hJSdB0NJ3ei23YBINFzjvB34TEsGvEHyG1Mc/OHmbDQeJQjsoQ4Lz95gh3VMXMh1wlsnzEg/JzB98RlsbjKxK5RROj58Ph4jK5FQa/HvOE4jEllNw8gU4XLM5WDwK6EeB6FcYwHrBURP6L0kklpNUgub1D1vC4YCHJAvkv2cuJQywBAFsND2E/2Ii/tYLnVsYZ3hrhJzI4QKPFJA/eOHQC5Q+EezkHDnlHzQRkcuMZKCAysTqOQctOEXFcMhDQp7tMx5P/FSwkzPk5BUftBKiVg/7CvBquQ2VKScpAZHP7aPzDcgTHJ0PmtjYRHjr7f+6yxuWYx5yvUhO2ENCAXEdDjybV0JPI0JZIrj1wjFVgq1TUp37pIf4g7cSPPHzWccctIBKiTJfIb7gSgExuZN3N0iHEwsIMVGVdIaAyolSXwGDKSct3lqxk3c3wCv4zTfyPA6qBt8hIkIG0TsuUcR0C02OKtMpg8gfyAgIMYFrf5ufuTylRO7qw0yUugWN4Akm8t+uqfLETHnA/7HDByolal1KR1miNnQp85wXKz2SyP8j0Kuv9J3N5F0ut60QLcimcdCinIUi2ljWmpzgZPuTXSJXuSqS5Cw0UVchb8/HCnfryRXrRC2VIkuw9jYWME3Ui6M9FQvDnSjhtk+kUBXx8pwlJ0q/iDGRXN6eT04S7lRCJFsVCSPSbGtLiVo3z5KoOyFSKAPk0WBFRDKzmyf9gCgMqgIn8sOMSHJyQLhTFVHp7KKQawXIJkItiBJOMRAMd6ojElZFvIBM6ZorXTgDwZtwrwMDiRecDHeqJOJXRYKjRRSiLJK1CzJ+FZbByAKYAlHL5RuXiD27wdlvKMb3/e94OWH8Go/E3skZCXe1RAw5edQ7cJIgjyiCuayqmheQBbCpEOHNis5ZuEmQ5xyQAy2jhcT5uxLRM30iFwRGxI6d8IiSIM/BrgfUFG3zrIS7+jVy8yILLsKVJ0GoEgF06Xnv2QnqdNYoCYxQEU6yiuAh14ujRnaFZ6pE4R+9bGKHk6siUDv5I16FZ8pE7lW0QPJVBLyTd/Fiz4aoe5UsWylVEbxTKKfuNT7QrIgGb0/UqgjETl4/IqUyXM5UHGfUj0itDJcjhXKqKdHKgQ5QlMG/qCtRV7nnxEkOZRd7NSXqKZy550BRBl9jIvn+jJQniQdrTeRKJNuFw6XxYN2JJGtXIB6sGdFNTCTRc+KQGXz9icrlRGbwKVHvugWirxURuUI54SqCTaKq1ij61y5nJ/ec7yipm5M14hUr6RLYLIj+1CKKCnv7mGcNl8BmQtRYOuSukpDIbS1/I9povjGP7SWIhv9sWSVqNJ62ONVXMVE4yPeCyfsLZ/CSRP7odtYTbo2o0Xi2wPzbMqJwmKNvyQL969+cqkgZUWf4IX8Ni0SN3Ycs1ysncls3zvZDh/sPt4ogJmpPPoG3sEkUyYn+cwmiaNf79pc/5L6IiGh4fJloB7dL1Gj8l/p7KaLwrwR9FSKiwe2f5BvYJbq/76AimywRroFJEvnDN3hOxURXGpcUiJJ2MKrIJkd0U4MoaZG8WxlR3sxJHpdURuQPvsSlMnTj2hoR7K3zYM26KiLQIkn8FoclItzMCWrWBdGiRaKoRRL2Yd6xTLS5RsXP+XFJRuT73wVDqRHRPcZF66IdoqUFRrKTyikhit5hTTSWmKhLELFqs8HZ33aJWLWDpA86IvIHn08CT5vI304mJyEaNOkeY895MZKKveWJ2MlOvJPf9FMRGxAFsS4jIubhRnTIK5dNqBAxD+ojOW0M3iddgCZEXlTQ715nng4mnRpVELnM6y/eadamabRG8eT8YAnoJOlrq4hIeP1FSHSjjCianDNqzOKmhSzRQ9U6g6CybUxEG7iqVBmRoBRnnSg4A50aFRK5vJZVy0SoS6JaohazIdgqEdUlUS0Rs2XVcza6XdYwZUR+84heoCNcY6maiOqxi9utVm5wg1U+kf+DOl/HvXVKRAKgst4tKKe03cr/cYOzTDyicBa66DNH97VNiQjs5KAy7193mevEJvIXb1Ld0py7OFMhynZy4h38xQ0WEovIb17vdfHkUH1t0yWKK9v4PpC/eEOGyB/8gMsZT46g1UmW6KUpkdu6iuY0uuKKGzdpoigBwS2rp/uCVqfpEZGdTmn66aHuOYooTUBI8u410WWp2RD5gy9p9IwbNwmiKAnykr8ibvuZn8PaJhpsF+knatwEREQVAd7brh8RWb9xiCukBVG+jBnTabY/1I5om0o/gVNlRD5dRfCCg5oSrTBu++VOlRCxqghe8D2tBdWPqMtIBzM5xUQDxkXL6KDZXoeG7TXiVFcOEiJmGW4t+qTWmchlp4NPWjdYTfpZTGqT6JF9IlY66K0tv6Bz+eDNMPm3NSfiVFdoniImrT0R91YRIaC3RcgzB0RuyYVgz/kDxqTzQSRqWcUXpuaDiF/Yo5O6eSEKjdEBTghoZkSbPT6SkIjayT2HdWFKhkjuprwsUaPxjt0UVEbkosuznF/0KCfyJ+fP7RI1xpc4TCVEcWEv42GU4eSIOsOt7EXKiA5liULXe8R0vVKirHbF/UmcUqLh8UXxGhaJGo09l9FjV06UdktzfxKnhGg4eg1bnawSMeUkQxTt5PyfxBETTc6JVqct0Zl7KZHrvsNIu5ew68kRucsS/QwMona2xSX2/PZEBCRBtHC4hJk2UctqlUS4t+5ixO/RkyQKmV5uYiZSTtURDYvm1MThJiIJSRO5rYWv1E/Rw5bVyog6zQ/wmc9vj8p4JIlcd7X1lJJT0bJaEVH7+BXxxFKHUyFiyqnoAM+I2sLeLTWi4egjIaCtiei3qTSIQqaH1H83lXWAJ0ThV1B4s1lMRFa3fCQgKYfLiETTSlhr4RlGanyN5RQRxSLe1CY677YAUaezRTxGzuEyomVZolBOq3uUnF4uxESJiLWJhreTyYmJ2iNSQFttOYfLiKTXKLKFR9ROHsrpaiftMDchamyGkxMSYQGFDicMEgyJQqZL1E7+dCN7ByOi6CflVq+NyJCn8Ure4TSJmHLKzJAojBqvEyFP44OKw+kShXJyKTnZIiLt+Wslh8uIlIFcppwqIFJ1OBOi0PVoOVkm+jBUdTgjooiJyjNsEj3QcLicSPS7WyJj5Rl/CpqMREQdRKTlcLGNPnFvfskwUXkGpxJRQtSGVYTI4ZpaDteMIpeLSA3sm18yxsgz9nq8NecRoSpC6HDHmgsEokHBRcoSY+QZvMIeh2iCP6nlWR3HyHTq6ao9OY2pSgSfCFURDByuPfqE3uOrvpyoPIMpJwZR6va5PX99rLfDhSNdxv/1SxIp6hkjMGIU9igiXEUIkwZNh8PpVG5LgnK92BhyorZQTASvuEamlDQIR4LGvZdcaguHeCfHWyhJRF5xbTR+nk80Ha49ecXlCW1sU07kFgqJcBnuwUfdHRuPxDCrcnoK5qcgotz+lYGAfuJnMsxETlSeUax5TgQOTmIzEFB7Cz+PY+9a2q5H5Rn5mqdEuIqgmHUDwyMJbfxVFHOKjJFnLCU7eUw0PEYhz2XdmBSPVGomcqLyjDgwCol8HPJcOdYVEB5Jxgzk1MNyik48l/1O21bIIy8g0viHyWXGyDMOV//BIY+ugIbHF7r/Bzv3MLnUGHLaI3bs8YX2F2ikKCDSDOS0ykjbc7vS0c0ZdARE2p6ry8RI21MLQx5NHpx96JmJnNYZ4z14rb1jj7QFRJqJnJ5Rr/BKP+l+zc4ZdExUEREbzjO29MpwTeoM09iYvRlSBuX087Z+zmBDQKQ9WzXNMwxyBlbSbW6cioiEJXmGdpWHSt/tmYGcen/rhzyWBUSatpy6ot9xExlO3+2bZlFZ2N3IN4mk29zGWkVlLaIKBUSajpx0iDpNvZxBx/aUq2DqRLiLpmpTlZMqkXLSbW6KclIkMs8ZdGxJRU5KRO2O/ZBHzhTOaBSIprJjc01aTtJE3HOGaZnskacsUbUhj5zJHXnKEbWPqw555EzmjEaGqKKcQcvK5VRONHMBkbZeVgUrJdItk1ZnJXIqIVI6Z5iaCeUkJBoef6yNgAgTndGI70rNIuSRM35RWXBXqnYCIm2Pc0bDI2qPLsoHnbGxi8rcu1J12rF5xiwqy9yVqrEx5MQgwkd+9TZKToy7Uhf13LG5huRUcldqLoyUE0k0OZ99zqBjsApG3JWq4JxhWlYUlcFdqZkm3eb2Lj2j4d2VmkNLz2iyu1I1SLrNLZZTcleqJkm3uYVyiu9KzbeASHu3cH3+BUTa+H/Tyhn+D/IW5zp2zsroAAAAAElFTkSuQmCC;" parent="1" vertex="1">
          <mxGeometry x="473.98" y="390" width="52.04" height="60" as="geometry" />
        </mxCell>
        <mxCell id="dMhWqFTF8XoTy5WsKYH8-1" value="" style="shape=image;html=1;verticalAlign=top;verticalLabelPosition=bottom;labelBackgroundColor=#ffffff;imageAspect=0;aspect=fixed;image=https://cdn0.iconfinder.com/data/icons/long-shadow-web-icons/512/nodejs-128.png" vertex="1" parent="1">
          <mxGeometry x="470" y="320" width="60" height="60" as="geometry" />
        </mxCell>
      </root>
    </mxGraphModel>
  </diagram>
</mxfile>
